<svg width="512" height="512" viewBox="0 0 200 200" fill="none" xmlns="http://www.w3.org/2000/svg">
  <rect width="200" height="200" fill="white"/>
  
  <g transform="translate(100, 115)">
    
    <defs>
      <style>
        .soft-edge { stroke: white; stroke-width: 4; stroke-linejoin: round; }
        .dark-fill { fill: #111111; }
        .medium-fill { fill: #222222; }
      </style>
    </defs>

    <g class="soft-edge">
        <path d="M-70 15 L0 50 L70 15 L70 -15 L0 20 L-70 -15 Z" class="dark-fill"/>
        <path d="M-70 -15 L0 20 L70 -15 L0 -50 Z" class="medium-fill"/>
    </g>
    
    <g class="soft-edge" transform="translate(0, -30)">
        <path d="M-50 0 L0 25 L50 0 L50 -25 L0 0 L-50 -25 Z" class="dark-fill"/>
        <path d="M-50 -25 L0 0 L50 -25 L0 -50 Z" class="medium-fill"/>
    </g>

    <g class="soft-edge" transform="translate(0, -55)">
        <path d="M-30 0 L0 15 L30 0 L30 -20 L0 -5 L-30 -20 Z" class="dark-fill"/>
        <path d="M-30 -20 L0 -5 L30 -20 L0 -35 Z" class="medium-fill"/>
    </g>

    <g transform="translate(0, -90)">
        <path d="M0 -30 L-45 0 L0 30 L45 0 Z" class="dark-fill soft-edge"/>
        <path d="M-25 17 L0 30 L25 17 L25 35 L0 48 L-25 35 Z" class="dark-fill soft-edge" transform="translate(0, 0)"/>
        
        <circle cx="0" cy="0" r="4" fill="#333333"/>
        <path d="M0 0 L35 20 L35 45" stroke="#333333" stroke-width="3" stroke-linecap="round" fill="none"/>
    </g>
    
  </g>
</svg>